<mxfile host="app.diagrams.net" modified="2023-03-24T19:41:52.379Z" agent="Mozilla/5.0 (Windows NT 10.0; Win64; x64) AppleWebKit/537.36 (KHTML, like Gecko) Chrome/111.0.0.0 Safari/537.36 Edg/111.0.1661.51" etag="-GNfZR0U04arEkSj2QDA" version="21.1.1" type="device">
  <diagram name="Страница 1" id="9Qu8hnE4xA6CWz-S7gTM">
    <mxGraphModel dx="2074" dy="1148" grid="1" gridSize="10" guides="1" tooltips="1" connect="1" arrows="1" fold="1" page="1" pageScale="1" pageWidth="827" pageHeight="1169" math="0" shadow="0">
      <root>
        <mxCell id="0" />
        <mxCell id="1" parent="0" />
        <mxCell id="oRJDLPFynKWb5hCNsr-5-3" style="edgeStyle=orthogonalEdgeStyle;rounded=0;orthogonalLoop=1;jettySize=auto;html=1;" parent="1" source="oRJDLPFynKWb5hCNsr-5-1" target="oRJDLPFynKWb5hCNsr-5-2" edge="1">
          <mxGeometry relative="1" as="geometry" />
        </mxCell>
        <mxCell id="oRJDLPFynKWb5hCNsr-5-1" value="Начало&lt;br&gt;openFile" style="ellipse;whiteSpace=wrap;html=1;" parent="1" vertex="1">
          <mxGeometry x="354" y="30" width="120" height="80" as="geometry" />
        </mxCell>
        <mxCell id="oRJDLPFynKWb5hCNsr-5-5" style="edgeStyle=orthogonalEdgeStyle;rounded=0;orthogonalLoop=1;jettySize=auto;html=1;" parent="1" source="oRJDLPFynKWb5hCNsr-5-2" target="oRJDLPFynKWb5hCNsr-5-4" edge="1">
          <mxGeometry relative="1" as="geometry" />
        </mxCell>
        <mxCell id="oRJDLPFynKWb5hCNsr-5-2" value="file = fopen(fileName, &quot;rb+&quot;)" style="rounded=0;whiteSpace=wrap;html=1;" parent="1" vertex="1">
          <mxGeometry x="334" y="140" width="160" height="60" as="geometry" />
        </mxCell>
        <mxCell id="oRJDLPFynKWb5hCNsr-5-8" value="TRUE" style="edgeStyle=orthogonalEdgeStyle;rounded=0;orthogonalLoop=1;jettySize=auto;html=1;entryX=0.5;entryY=0;entryDx=0;entryDy=0;" parent="1" source="oRJDLPFynKWb5hCNsr-5-4" target="oRJDLPFynKWb5hCNsr-5-6" edge="1">
          <mxGeometry relative="1" as="geometry">
            <Array as="points">
              <mxPoint x="297" y="270" />
            </Array>
          </mxGeometry>
        </mxCell>
        <mxCell id="oRJDLPFynKWb5hCNsr-5-10" style="edgeStyle=orthogonalEdgeStyle;rounded=0;orthogonalLoop=1;jettySize=auto;html=1;entryX=0.5;entryY=0;entryDx=0;entryDy=0;" parent="1" source="oRJDLPFynKWb5hCNsr-5-4" target="oRJDLPFynKWb5hCNsr-5-9" edge="1">
          <mxGeometry relative="1" as="geometry" />
        </mxCell>
        <mxCell id="oRJDLPFynKWb5hCNsr-5-4" value="!file" style="rhombus;whiteSpace=wrap;html=1;" parent="1" vertex="1">
          <mxGeometry x="374" y="230" width="80" height="80" as="geometry" />
        </mxCell>
        <mxCell id="61aJp_Gt5_nWUSnt7OLB-1" style="edgeStyle=orthogonalEdgeStyle;rounded=0;orthogonalLoop=1;jettySize=auto;html=1;" edge="1" parent="1" source="oRJDLPFynKWb5hCNsr-5-6">
          <mxGeometry relative="1" as="geometry">
            <mxPoint x="420" y="380" as="targetPoint" />
            <Array as="points">
              <mxPoint x="297" y="380" />
            </Array>
          </mxGeometry>
        </mxCell>
        <mxCell id="oRJDLPFynKWb5hCNsr-5-6" value="file = fopen(fileName, &quot;wb+&quot;)" style="rounded=0;whiteSpace=wrap;html=1;" parent="1" vertex="1">
          <mxGeometry x="220" y="300" width="154" height="60" as="geometry" />
        </mxCell>
        <mxCell id="oRJDLPFynKWb5hCNsr-5-12" value="TRUE" style="edgeStyle=orthogonalEdgeStyle;rounded=0;orthogonalLoop=1;jettySize=auto;html=1;entryX=0.436;entryY=-0.021;entryDx=0;entryDy=0;entryPerimeter=0;" parent="1" source="oRJDLPFynKWb5hCNsr-5-9" edge="1">
          <mxGeometry relative="1" as="geometry">
            <mxPoint x="289.31999999999994" y="478.31999999999994" as="targetPoint" />
            <Array as="points">
              <mxPoint x="289" y="440" />
            </Array>
          </mxGeometry>
        </mxCell>
        <mxCell id="oRJDLPFynKWb5hCNsr-5-15" style="edgeStyle=orthogonalEdgeStyle;rounded=0;orthogonalLoop=1;jettySize=auto;html=1;entryX=0.5;entryY=0;entryDx=0;entryDy=0;" parent="1" source="oRJDLPFynKWb5hCNsr-5-9" target="oRJDLPFynKWb5hCNsr-5-14" edge="1">
          <mxGeometry relative="1" as="geometry" />
        </mxCell>
        <mxCell id="oRJDLPFynKWb5hCNsr-5-9" value="!file" style="rhombus;whiteSpace=wrap;html=1;" parent="1" vertex="1">
          <mxGeometry x="374" y="400" width="80" height="80" as="geometry" />
        </mxCell>
        <mxCell id="oRJDLPFynKWb5hCNsr-5-13" value="exit(1)" style="rounded=0;whiteSpace=wrap;html=1;" parent="1" vertex="1">
          <mxGeometry x="230" y="480" width="120" height="60" as="geometry" />
        </mxCell>
        <mxCell id="oRJDLPFynKWb5hCNsr-5-14" value="Конец" style="ellipse;whiteSpace=wrap;html=1;" parent="1" vertex="1">
          <mxGeometry x="354" y="550" width="120" height="80" as="geometry" />
        </mxCell>
      </root>
    </mxGraphModel>
  </diagram>
</mxfile>
